<svg width="18" height="19" viewBox="0 0 18 19" fill="none" xmlns="http://www.w3.org/2000/svg">
<path fill-rule="evenodd" clip-rule="evenodd" d="M4 9.5C4 6.57413 6 4.5 9 4.5C12.0017 4.5 14 6.48181 14 9.57446C14 12.5748 12.0017 14.5 9.00201 14.5C6.00234 14.5 4 12.5748 4 9.5ZM6.00234 9.57446C6.00234 11.2293 7.35159 12.5748 9.00201 12.5748C10.6524 12.5748 12.0017 11.2293 12.0017 9.57446C12.0017 7.91966 10.6564 6.57413 9.00201 6.57413C7.34757 6.57413 6.00234 7.91966 6.00234 9.57446ZM14.8047 5.84714C15.399 5.84714 15.8809 5.36917 15.8809 4.77071C15.8809 4.17627 15.399 3.69429 14.8047 3.69429C14.2104 3.69429 13.7285 4.17627 13.7285 4.77071C13.7285 5.36516 14.2064 5.84714 14.8047 5.84714ZM16.4831 2.0917C17.5392 3.14403 17.8685 4.42128 17.9368 5.86321C18.0211 7.34931 18.0211 11.7996 17.9368 13.2857C17.8645 14.7276 17.5352 16.0049 16.4831 17.0572C15.431 18.1136 14.154 18.4429 12.7124 18.5112C11.2267 18.5955 6.77334 18.5955 5.28756 18.5112C3.84596 18.4389 2.57301 18.1096 1.5169 17.0572C0.460792 16.0049 0.131511 14.7276 0.063246 13.2857C-0.021082 11.7996 -0.021082 7.3453 0.063246 5.85919C0.135527 4.41726 0.460792 3.14001 1.5169 2.08768C2.57301 1.03536 3.84997 0.706004 5.28756 0.637723C6.77334 0.553376 11.2267 0.553376 12.7124 0.637723C14.154 0.71002 15.431 1.03937 16.4831 2.0917Z" fill="#363636"/>
</svg>
