<svg width="18" height="20" viewBox="0 0 18 20" fill="none" xmlns="http://www.w3.org/2000/svg">
<path d="M4.02901 19.5745H0.297255V6.88942H4.02901V19.5745V19.5745ZM2.16112 5.15906C0.968087 5.15906 0 4.11576 0 2.85616C0 1.59656 0.968087 0.574463 2.16112 0.574463C3.35416 0.574463 4.32225 1.59656 4.32225 2.85616C4.32225 4.11576 3.35416 5.15906 2.16112 5.15906ZM17.996 19.5745H14.2723V13.3995C14.2723 11.9278 14.2441 10.0405 12.3321 10.0405C10.3919 10.0405 10.0946 11.6394 10.0946 13.2934V19.5745H6.36688V6.88942H9.94599V8.61977H9.99821C10.4963 7.62312 11.7135 6.57134 13.5291 6.57134C17.3051 6.57134 18 9.19656 18 12.6064V19.5745H17.996Z" fill="#363636"/>
</svg>
