<svg width="22" height="14" viewBox="0 0 22 14" fill="none" xmlns="http://www.w3.org/2000/svg">
<path d="M21.4986 1.46959C21.6497 0.953963 21.4986 0.574463 20.7716 0.574463H18.3661C17.7535 0.574463 17.4717 0.900338 17.3206 1.26334C17.3206 1.26334 16.0954 4.27871 14.3637 6.23396C13.8042 6.79909 13.5469 6.98059 13.2406 6.98059C13.0895 6.98059 12.8567 6.79909 12.8567 6.28346V1.46959C12.8567 0.850838 12.6852 0.574463 12.1787 0.574463H8.39687C8.01297 0.574463 7.78426 0.863213 7.78426 1.13134C7.78426 1.71709 8.65009 1.85321 8.73993 3.50321V7.08371C8.73993 7.86746 8.60108 8.01184 8.29477 8.01184C7.47795 8.01184 5.49309 4.98409 4.31687 1.51909C4.08 0.846713 3.84721 0.574463 3.23051 0.574463H0.824984C0.138859 0.574463 1.55795e-08 0.900338 1.55795e-08 1.26334C1.55795e-08 1.90684 0.816816 5.10371 3.80228 9.32771C5.79123 12.2111 8.59291 13.7745 11.1414 13.7745C12.6729 13.7745 12.8608 13.428 12.8608 12.8298C12.8608 10.0743 12.7219 9.81446 13.4897 9.81446C13.845 9.81446 14.4577 9.99596 15.8871 11.3861C17.5207 13.0361 17.7903 13.7745 18.7051 13.7745H21.1106C21.7967 13.7745 22.1439 13.428 21.9438 12.7432C21.4864 11.3036 18.3947 8.34184 18.2558 8.14384C17.9005 7.68184 18.0026 7.47559 18.2558 7.06309C18.2599 7.05896 21.1964 2.88446 21.4986 1.46959Z" fill="#363636"/>
</svg>
